<?xml version="1.0" encoding="utf-8"?><!-- Uploaded to: SVG Repo, www.svgrepo.com, Generator: SVG Repo Mixer Tools -->
<svg fill="#000000" width="800px" height="800px" viewBox="0 0 24 24" id="wallet-money" data-name="Flat Line" xmlns="http://www.w3.org/2000/svg" class="icon flat-line"><path id="secondary" d="M16,13h5V10a1,1,0,0,0-1-1H4a1,1,0,0,0-1,1V20a1,1,0,0,0,1,1H20a1,1,0,0,0,1-1V17H16a1,1,0,0,1-1-1V14A1,1,0,0,1,16,13Z" style="fill: rgb(44, 169, 188); stroke-width: 2;"></path><path id="primary" d="M17.21,9,19,6.44,14.09,3,9.88,9ZM9.09,4,5.58,9h4.3L12,6ZM21,10V20a1,1,0,0,1-1,1H4a1,1,0,0,1-1-1V10A1,1,0,0,1,4,9H20A1,1,0,0,1,21,10Zm0,7H16a1,1,0,0,1-1-1V14a1,1,0,0,1,1-1h5Z" style="fill: none; stroke: rgb(0, 0, 0); stroke-linecap: round; stroke-linejoin: round; stroke-width: 2;"></path></svg>